# xmcd
# Copyright (C) 1995-1998 Ti Kan
#
# Track frame offsets:
#       150
#       14804
#       31063
#       50823
#       66306
#       86098
#       104218
#       122037
#       136051
#       148705
#
# Disc length: 2121 seconds
#
# Revision: 0
# Processed by: cddbd v1.5.2PL0 Copyright (c) Steve Scherf et al.
# Submitted via: CD-Transfer v1.0
#
DISCID=9808470a
DTITLE=Nan Deska - M. Mucalo, K. Mudrovèiæ
DYEAR=12
DGENRE=
TTITLE0=Ljeto
TTITLE1=Bossa Noga
TTITLE2=Parking
TTITLE3=Peronospora
TTITLE4=Ivica I Marica
TTITLE5=Volim Te
TTITLE6=Promili
TTITLE7=Sasvim Obièan Dan
TTITLE8=Kaktusi
TTITLE9=Dubby Dub
EXTD=
EXTT0=
EXTT1=
EXTT2=
EXTT3=
EXTT4=
EXTT5=
EXTT6=
EXTT7=
EXTT8=
EXTT9=
PLAYORDER=
